<mxfile host="app.diagrams.net" modified="2023-09-09T19:37:45.797Z" agent="Mozilla/5.0 (Windows NT 10.0; Win64; x64) AppleWebKit/537.36 (KHTML, like Gecko) Chrome/116.0.0.0 Safari/537.36" etag="1Z-AMu8PhLK7mxFBZpEb" version="21.6.9" type="device">
  <diagram name="Page-1" id="FjFkKBCYZUUA0dPAQZ6o">
    <mxGraphModel dx="1896" dy="721" grid="1" gridSize="10" guides="1" tooltips="1" connect="1" arrows="1" fold="1" page="1" pageScale="1" pageWidth="850" pageHeight="1100" math="0" shadow="0">
      <root>
        <mxCell id="0" />
        <mxCell id="1" parent="0" />
        <mxCell id="n9JTQqe42D7A08Dbdf05-1" value="Menentukan Besar Premi" style="rounded=1;whiteSpace=wrap;html=1;" vertex="1" parent="1">
          <mxGeometry x="350" y="40" width="100" height="40" as="geometry" />
        </mxCell>
        <mxCell id="n9JTQqe42D7A08Dbdf05-2" value="" style="endArrow=none;html=1;rounded=0;" edge="1" parent="1">
          <mxGeometry width="50" height="50" relative="1" as="geometry">
            <mxPoint x="400" y="250" as="sourcePoint" />
            <mxPoint x="400" y="200" as="targetPoint" />
          </mxGeometry>
        </mxCell>
        <mxCell id="n9JTQqe42D7A08Dbdf05-3" value="" style="endArrow=none;html=1;rounded=0;" edge="1" parent="1">
          <mxGeometry width="50" height="50" relative="1" as="geometry">
            <mxPoint x="135" y="250" as="sourcePoint" />
            <mxPoint x="680" y="250" as="targetPoint" />
          </mxGeometry>
        </mxCell>
        <mxCell id="n9JTQqe42D7A08Dbdf05-4" value="YA" style="text;html=1;strokeColor=none;fillColor=none;align=center;verticalAlign=middle;whiteSpace=wrap;rounded=0;" vertex="1" parent="1">
          <mxGeometry x="105" y="220" width="60" height="30" as="geometry" />
        </mxCell>
        <mxCell id="n9JTQqe42D7A08Dbdf05-5" value="" style="endArrow=none;html=1;rounded=0;" edge="1" parent="1">
          <mxGeometry width="50" height="50" relative="1" as="geometry">
            <mxPoint x="399.5" y="130" as="sourcePoint" />
            <mxPoint x="399.5" y="80" as="targetPoint" />
          </mxGeometry>
        </mxCell>
        <mxCell id="n9JTQqe42D7A08Dbdf05-7" value="Merokok" style="rhombus;whiteSpace=wrap;html=1;" vertex="1" parent="1">
          <mxGeometry x="325" y="130" width="150" height="70" as="geometry" />
        </mxCell>
        <mxCell id="n9JTQqe42D7A08Dbdf05-8" value="TIDAK" style="text;html=1;strokeColor=none;fillColor=none;align=center;verticalAlign=middle;whiteSpace=wrap;rounded=0;" vertex="1" parent="1">
          <mxGeometry x="620" y="220" width="60" height="30" as="geometry" />
        </mxCell>
        <mxCell id="n9JTQqe42D7A08Dbdf05-11" value="" style="endArrow=none;html=1;rounded=0;" edge="1" parent="1">
          <mxGeometry width="50" height="50" relative="1" as="geometry">
            <mxPoint x="134.5" y="300" as="sourcePoint" />
            <mxPoint x="134.5" y="250" as="targetPoint" />
          </mxGeometry>
        </mxCell>
        <mxCell id="n9JTQqe42D7A08Dbdf05-12" value="BloodPressure &amp;gt; 120" style="rhombus;whiteSpace=wrap;html=1;" vertex="1" parent="1">
          <mxGeometry x="60" y="301" width="150" height="70" as="geometry" />
        </mxCell>
        <mxCell id="n9JTQqe42D7A08Dbdf05-13" value="" style="endArrow=none;html=1;rounded=0;" edge="1" parent="1">
          <mxGeometry width="50" height="50" relative="1" as="geometry">
            <mxPoint x="679.5" y="300" as="sourcePoint" />
            <mxPoint x="679.5" y="250" as="targetPoint" />
          </mxGeometry>
        </mxCell>
        <mxCell id="n9JTQqe42D7A08Dbdf05-14" value="BloodPressure &amp;gt; 120" style="rhombus;whiteSpace=wrap;html=1;" vertex="1" parent="1">
          <mxGeometry x="605" y="301" width="150" height="70" as="geometry" />
        </mxCell>
        <mxCell id="n9JTQqe42D7A08Dbdf05-15" value="" style="endArrow=none;html=1;rounded=0;" edge="1" parent="1">
          <mxGeometry width="50" height="50" relative="1" as="geometry">
            <mxPoint x="134.5" y="421" as="sourcePoint" />
            <mxPoint x="134.5" y="371" as="targetPoint" />
          </mxGeometry>
        </mxCell>
        <mxCell id="n9JTQqe42D7A08Dbdf05-16" value="" style="endArrow=none;html=1;rounded=0;" edge="1" parent="1">
          <mxGeometry width="50" height="50" relative="1" as="geometry">
            <mxPoint x="-10" y="420" as="sourcePoint" />
            <mxPoint x="290" y="420" as="targetPoint" />
          </mxGeometry>
        </mxCell>
        <mxCell id="n9JTQqe42D7A08Dbdf05-17" value="" style="endArrow=none;html=1;rounded=0;" edge="1" parent="1">
          <mxGeometry width="50" height="50" relative="1" as="geometry">
            <mxPoint x="674.5" y="421" as="sourcePoint" />
            <mxPoint x="674.5" y="371" as="targetPoint" />
          </mxGeometry>
        </mxCell>
        <mxCell id="n9JTQqe42D7A08Dbdf05-18" value="" style="endArrow=none;html=1;rounded=0;" edge="1" parent="1">
          <mxGeometry width="50" height="50" relative="1" as="geometry">
            <mxPoint x="530" y="420" as="sourcePoint" />
            <mxPoint x="830" y="420" as="targetPoint" />
          </mxGeometry>
        </mxCell>
        <mxCell id="n9JTQqe42D7A08Dbdf05-19" value="BMI &amp;gt;= 25" style="rhombus;whiteSpace=wrap;html=1;" vertex="1" parent="1">
          <mxGeometry x="-80" y="470" width="150" height="70" as="geometry" />
        </mxCell>
        <mxCell id="n9JTQqe42D7A08Dbdf05-20" value="BMI &amp;gt;= 25" style="rhombus;whiteSpace=wrap;html=1;" vertex="1" parent="1">
          <mxGeometry x="220" y="470" width="150" height="70" as="geometry" />
        </mxCell>
        <mxCell id="n9JTQqe42D7A08Dbdf05-21" value="BMI &amp;gt;= 25" style="rhombus;whiteSpace=wrap;html=1;" vertex="1" parent="1">
          <mxGeometry x="455" y="470" width="150" height="70" as="geometry" />
        </mxCell>
        <mxCell id="n9JTQqe42D7A08Dbdf05-22" value="BMI &amp;gt;= 25" style="rhombus;whiteSpace=wrap;html=1;" vertex="1" parent="1">
          <mxGeometry x="755" y="470" width="150" height="70" as="geometry" />
        </mxCell>
        <mxCell id="n9JTQqe42D7A08Dbdf05-23" value="" style="endArrow=none;html=1;rounded=0;" edge="1" parent="1">
          <mxGeometry width="50" height="50" relative="1" as="geometry">
            <mxPoint x="-5.5" y="470" as="sourcePoint" />
            <mxPoint x="-5.5" y="420" as="targetPoint" />
          </mxGeometry>
        </mxCell>
        <mxCell id="n9JTQqe42D7A08Dbdf05-24" value="" style="endArrow=none;html=1;rounded=0;" edge="1" parent="1">
          <mxGeometry width="50" height="50" relative="1" as="geometry">
            <mxPoint x="290" y="470" as="sourcePoint" />
            <mxPoint x="290" y="420" as="targetPoint" />
          </mxGeometry>
        </mxCell>
        <mxCell id="n9JTQqe42D7A08Dbdf05-25" value="" style="endArrow=none;html=1;rounded=0;" edge="1" parent="1">
          <mxGeometry width="50" height="50" relative="1" as="geometry">
            <mxPoint x="530" y="470" as="sourcePoint" />
            <mxPoint x="530" y="420" as="targetPoint" />
          </mxGeometry>
        </mxCell>
        <mxCell id="n9JTQqe42D7A08Dbdf05-26" value="" style="endArrow=none;html=1;rounded=0;" edge="1" parent="1">
          <mxGeometry width="50" height="50" relative="1" as="geometry">
            <mxPoint x="830" y="470" as="sourcePoint" />
            <mxPoint x="830" y="420" as="targetPoint" />
          </mxGeometry>
        </mxCell>
        <mxCell id="n9JTQqe42D7A08Dbdf05-27" value="YA" style="text;html=1;strokeColor=none;fillColor=none;align=center;verticalAlign=middle;whiteSpace=wrap;rounded=0;" vertex="1" parent="1">
          <mxGeometry x="-35" y="390" width="60" height="30" as="geometry" />
        </mxCell>
        <mxCell id="n9JTQqe42D7A08Dbdf05-28" value="YA" style="text;html=1;strokeColor=none;fillColor=none;align=center;verticalAlign=middle;whiteSpace=wrap;rounded=0;" vertex="1" parent="1">
          <mxGeometry x="510" y="390" width="60" height="30" as="geometry" />
        </mxCell>
        <mxCell id="n9JTQqe42D7A08Dbdf05-29" value="TIDAK" style="text;html=1;strokeColor=none;fillColor=none;align=center;verticalAlign=middle;whiteSpace=wrap;rounded=0;" vertex="1" parent="1">
          <mxGeometry x="245" y="390" width="60" height="30" as="geometry" />
        </mxCell>
        <mxCell id="n9JTQqe42D7A08Dbdf05-30" value="TIDAK" style="text;html=1;strokeColor=none;fillColor=none;align=center;verticalAlign=middle;whiteSpace=wrap;rounded=0;" vertex="1" parent="1">
          <mxGeometry x="780" y="390" width="60" height="30" as="geometry" />
        </mxCell>
        <mxCell id="n9JTQqe42D7A08Dbdf05-32" value="" style="endArrow=none;html=1;rounded=0;" edge="1" parent="1">
          <mxGeometry width="50" height="50" relative="1" as="geometry">
            <mxPoint x="-5.5" y="590" as="sourcePoint" />
            <mxPoint x="-5.5" y="540" as="targetPoint" />
          </mxGeometry>
        </mxCell>
        <mxCell id="n9JTQqe42D7A08Dbdf05-33" value="" style="endArrow=none;html=1;rounded=0;" edge="1" parent="1">
          <mxGeometry width="50" height="50" relative="1" as="geometry">
            <mxPoint x="-85" y="590" as="sourcePoint" />
            <mxPoint x="75" y="590" as="targetPoint" />
          </mxGeometry>
        </mxCell>
        <mxCell id="n9JTQqe42D7A08Dbdf05-34" value="" style="endArrow=none;html=1;rounded=0;" edge="1" parent="1">
          <mxGeometry width="50" height="50" relative="1" as="geometry">
            <mxPoint x="-83" y="640" as="sourcePoint" />
            <mxPoint x="-83" y="590" as="targetPoint" />
          </mxGeometry>
        </mxCell>
        <mxCell id="n9JTQqe42D7A08Dbdf05-35" value="" style="endArrow=none;html=1;rounded=0;" edge="1" parent="1">
          <mxGeometry width="50" height="50" relative="1" as="geometry">
            <mxPoint x="73" y="640" as="sourcePoint" />
            <mxPoint x="73" y="590" as="targetPoint" />
          </mxGeometry>
        </mxCell>
        <mxCell id="n9JTQqe42D7A08Dbdf05-36" value="A" style="rounded=1;whiteSpace=wrap;html=1;fillColor=#FF6666;" vertex="1" parent="1">
          <mxGeometry x="-110" y="640" width="55" height="30" as="geometry" />
        </mxCell>
        <mxCell id="n9JTQqe42D7A08Dbdf05-37" value="B" style="rounded=1;whiteSpace=wrap;html=1;fillColor=#FFCC99;" vertex="1" parent="1">
          <mxGeometry x="50" y="640" width="55" height="30" as="geometry" />
        </mxCell>
        <mxCell id="n9JTQqe42D7A08Dbdf05-38" value="YA" style="text;html=1;strokeColor=none;fillColor=none;align=center;verticalAlign=middle;whiteSpace=wrap;rounded=0;" vertex="1" parent="1">
          <mxGeometry x="-110" y="560" width="60" height="30" as="geometry" />
        </mxCell>
        <mxCell id="n9JTQqe42D7A08Dbdf05-39" value="TIDAK" style="text;html=1;strokeColor=none;fillColor=none;align=center;verticalAlign=middle;whiteSpace=wrap;rounded=0;" vertex="1" parent="1">
          <mxGeometry x="40" y="560" width="60" height="30" as="geometry" />
        </mxCell>
        <mxCell id="n9JTQqe42D7A08Dbdf05-40" value="" style="endArrow=none;html=1;rounded=0;" edge="1" parent="1">
          <mxGeometry width="50" height="50" relative="1" as="geometry">
            <mxPoint x="295" y="590" as="sourcePoint" />
            <mxPoint x="295" y="540" as="targetPoint" />
          </mxGeometry>
        </mxCell>
        <mxCell id="n9JTQqe42D7A08Dbdf05-41" value="" style="endArrow=none;html=1;rounded=0;" edge="1" parent="1">
          <mxGeometry width="50" height="50" relative="1" as="geometry">
            <mxPoint x="215.5" y="590" as="sourcePoint" />
            <mxPoint x="375.5" y="590" as="targetPoint" />
          </mxGeometry>
        </mxCell>
        <mxCell id="n9JTQqe42D7A08Dbdf05-42" value="" style="endArrow=none;html=1;rounded=0;" edge="1" parent="1">
          <mxGeometry width="50" height="50" relative="1" as="geometry">
            <mxPoint x="217.5" y="640" as="sourcePoint" />
            <mxPoint x="217.5" y="590" as="targetPoint" />
          </mxGeometry>
        </mxCell>
        <mxCell id="n9JTQqe42D7A08Dbdf05-43" value="" style="endArrow=none;html=1;rounded=0;" edge="1" parent="1">
          <mxGeometry width="50" height="50" relative="1" as="geometry">
            <mxPoint x="373.5" y="640" as="sourcePoint" />
            <mxPoint x="373.5" y="590" as="targetPoint" />
          </mxGeometry>
        </mxCell>
        <mxCell id="n9JTQqe42D7A08Dbdf05-44" value="B" style="rounded=1;whiteSpace=wrap;html=1;fillColor=#FFCC99;" vertex="1" parent="1">
          <mxGeometry x="190.5" y="640" width="55" height="30" as="geometry" />
        </mxCell>
        <mxCell id="n9JTQqe42D7A08Dbdf05-45" value="C" style="rounded=1;whiteSpace=wrap;html=1;fillColor=#FFFF99;" vertex="1" parent="1">
          <mxGeometry x="350.5" y="640" width="55" height="30" as="geometry" />
        </mxCell>
        <mxCell id="n9JTQqe42D7A08Dbdf05-46" value="YA" style="text;html=1;strokeColor=none;fillColor=none;align=center;verticalAlign=middle;whiteSpace=wrap;rounded=0;" vertex="1" parent="1">
          <mxGeometry x="190.5" y="560" width="60" height="30" as="geometry" />
        </mxCell>
        <mxCell id="n9JTQqe42D7A08Dbdf05-47" value="TIDAK" style="text;html=1;strokeColor=none;fillColor=none;align=center;verticalAlign=middle;whiteSpace=wrap;rounded=0;" vertex="1" parent="1">
          <mxGeometry x="340.5" y="560" width="60" height="30" as="geometry" />
        </mxCell>
        <mxCell id="n9JTQqe42D7A08Dbdf05-48" value="" style="endArrow=none;html=1;rounded=0;" edge="1" parent="1">
          <mxGeometry width="50" height="50" relative="1" as="geometry">
            <mxPoint x="529.5" y="590" as="sourcePoint" />
            <mxPoint x="529.5" y="540" as="targetPoint" />
          </mxGeometry>
        </mxCell>
        <mxCell id="n9JTQqe42D7A08Dbdf05-49" value="" style="endArrow=none;html=1;rounded=0;" edge="1" parent="1">
          <mxGeometry width="50" height="50" relative="1" as="geometry">
            <mxPoint x="450" y="590" as="sourcePoint" />
            <mxPoint x="610" y="590" as="targetPoint" />
          </mxGeometry>
        </mxCell>
        <mxCell id="n9JTQqe42D7A08Dbdf05-50" value="" style="endArrow=none;html=1;rounded=0;" edge="1" parent="1">
          <mxGeometry width="50" height="50" relative="1" as="geometry">
            <mxPoint x="452" y="640" as="sourcePoint" />
            <mxPoint x="452" y="590" as="targetPoint" />
          </mxGeometry>
        </mxCell>
        <mxCell id="n9JTQqe42D7A08Dbdf05-51" value="" style="endArrow=none;html=1;rounded=0;" edge="1" parent="1">
          <mxGeometry width="50" height="50" relative="1" as="geometry">
            <mxPoint x="608" y="640" as="sourcePoint" />
            <mxPoint x="608" y="590" as="targetPoint" />
          </mxGeometry>
        </mxCell>
        <mxCell id="n9JTQqe42D7A08Dbdf05-52" value="C" style="rounded=1;whiteSpace=wrap;html=1;fillColor=#FFFF99;" vertex="1" parent="1">
          <mxGeometry x="425" y="640" width="55" height="30" as="geometry" />
        </mxCell>
        <mxCell id="n9JTQqe42D7A08Dbdf05-53" value="D" style="rounded=1;whiteSpace=wrap;html=1;fillColor=#99FF99;" vertex="1" parent="1">
          <mxGeometry x="585" y="640" width="55" height="30" as="geometry" />
        </mxCell>
        <mxCell id="n9JTQqe42D7A08Dbdf05-54" value="YA" style="text;html=1;strokeColor=none;fillColor=none;align=center;verticalAlign=middle;whiteSpace=wrap;rounded=0;" vertex="1" parent="1">
          <mxGeometry x="425" y="560" width="60" height="30" as="geometry" />
        </mxCell>
        <mxCell id="n9JTQqe42D7A08Dbdf05-55" value="TIDAK" style="text;html=1;strokeColor=none;fillColor=none;align=center;verticalAlign=middle;whiteSpace=wrap;rounded=0;" vertex="1" parent="1">
          <mxGeometry x="575" y="560" width="60" height="30" as="geometry" />
        </mxCell>
        <mxCell id="n9JTQqe42D7A08Dbdf05-56" value="" style="endArrow=none;html=1;rounded=0;" edge="1" parent="1">
          <mxGeometry width="50" height="50" relative="1" as="geometry">
            <mxPoint x="831" y="590" as="sourcePoint" />
            <mxPoint x="831" y="540" as="targetPoint" />
          </mxGeometry>
        </mxCell>
        <mxCell id="n9JTQqe42D7A08Dbdf05-57" value="" style="endArrow=none;html=1;rounded=0;" edge="1" parent="1">
          <mxGeometry width="50" height="50" relative="1" as="geometry">
            <mxPoint x="751.5" y="590" as="sourcePoint" />
            <mxPoint x="911.5" y="590" as="targetPoint" />
          </mxGeometry>
        </mxCell>
        <mxCell id="n9JTQqe42D7A08Dbdf05-58" value="" style="endArrow=none;html=1;rounded=0;" edge="1" parent="1">
          <mxGeometry width="50" height="50" relative="1" as="geometry">
            <mxPoint x="753.5" y="640" as="sourcePoint" />
            <mxPoint x="753.5" y="590" as="targetPoint" />
          </mxGeometry>
        </mxCell>
        <mxCell id="n9JTQqe42D7A08Dbdf05-59" value="" style="endArrow=none;html=1;rounded=0;" edge="1" parent="1">
          <mxGeometry width="50" height="50" relative="1" as="geometry">
            <mxPoint x="909.5" y="640" as="sourcePoint" />
            <mxPoint x="909.5" y="590" as="targetPoint" />
          </mxGeometry>
        </mxCell>
        <mxCell id="n9JTQqe42D7A08Dbdf05-60" value="D" style="rounded=1;whiteSpace=wrap;html=1;fillColor=#99FF99;" vertex="1" parent="1">
          <mxGeometry x="726.5" y="640" width="55" height="30" as="geometry" />
        </mxCell>
        <mxCell id="n9JTQqe42D7A08Dbdf05-61" value="E" style="rounded=1;whiteSpace=wrap;html=1;fillColor=#99CCFF;" vertex="1" parent="1">
          <mxGeometry x="886.5" y="640" width="55" height="30" as="geometry" />
        </mxCell>
        <mxCell id="n9JTQqe42D7A08Dbdf05-62" value="YA" style="text;html=1;strokeColor=none;fillColor=none;align=center;verticalAlign=middle;whiteSpace=wrap;rounded=0;" vertex="1" parent="1">
          <mxGeometry x="726.5" y="560" width="60" height="30" as="geometry" />
        </mxCell>
        <mxCell id="n9JTQqe42D7A08Dbdf05-63" value="TIDAK" style="text;html=1;strokeColor=none;fillColor=none;align=center;verticalAlign=middle;whiteSpace=wrap;rounded=0;" vertex="1" parent="1">
          <mxGeometry x="876.5" y="560" width="60" height="30" as="geometry" />
        </mxCell>
      </root>
    </mxGraphModel>
  </diagram>
</mxfile>
